<svg width="41" height="24" viewBox="0 0 41 24" fill="none" xmlns="http://www.w3.org/2000/svg">
<path d="M20.4568 8.3654L5.82639 23.0172C5.1451 23.7001 4.3445 24.0271 3.42459 23.9982C2.50468 23.9694 1.70408 23.6135 1.0228 22.9306C0.340932 22.2483 0 21.432 0 20.4819C0 19.5317 0.340932 18.7154 1.0228 18.0331L18.0057 1.02349C18.6876 0.341163 19.5046 0 20.4568 0C21.409 0 22.226 0.341163 22.9079 1.02349L39.9772 18.1197C40.6591 18.802 41 19.6038 41 20.5251C41 21.4465 40.6591 22.2483 39.9772 22.9306C39.2959 23.6135 38.4809 23.955 37.5322 23.955C36.5835 23.955 35.7684 23.6135 35.0872 22.9306L20.4568 8.3654Z" fill="#8C9CA6"/>
</svg>
