<svg width="311" height="324" viewBox="0 0 311 324" fill="none" xmlns="http://www.w3.org/2000/svg">
<path d="M128.959 11.6025C144.745 -4.18193 170.897 -2.12998 184.027 15.9232L189.2 23.0359L84.687 127.549L78.5531 123.46C59.4786 110.744 56.8064 83.756 73.0164 67.5459L128.959 11.6025Z" fill="#00ACE6"/>
<path d="M105.238 141.249L146.594 168.82C147.996 169.754 149.187 170.972 150.093 172.394L170.007 203.686L267.07 106.623L232.361 81.3808C231.338 80.6356 230.435 79.7344 229.691 78.7099L203.622 42.8647L105.238 141.249Z" fill="#00ACE6"/>
<path d="M187.649 231.412L183.325 224.618L286.898 121.044L295.148 127.044C313.201 140.174 315.253 166.327 299.469 182.111L243.984 237.595C227.551 254.028 200.126 251.019 187.649 231.412Z" fill="#00ACE6"/>
<path d="M106.561 166.389L8.51186 262.589C-2.76246 273.651 -2.84787 291.786 8.32167 302.954C19.4152 314.046 37.3993 314.044 48.4916 302.952L146.734 204.707L133.98 184.667L106.561 166.389Z" fill="#00ACE6"/>
<path d="M193.898 274.599C187.21 274.599 181.788 280.021 181.788 286.708C181.788 293.396 187.21 298.818 193.898 298.818H161.606C154.919 298.818 149.497 304.239 149.497 310.927C149.497 317.614 154.919 323.036 161.606 323.036H298.844C305.532 323.036 310.953 317.614 310.953 310.927C310.953 304.239 305.532 298.818 298.844 298.818H266.553C273.24 298.818 278.662 293.396 278.662 286.708C278.662 280.021 273.24 274.599 266.553 274.599H193.898Z" fill="#EA609C"/>
</svg>
